<svg width="13" height="16" viewBox="0 0 13 16" fill="none" xmlns="http://www.w3.org/2000/svg">
<g id="arrow-left 2" clip-path="url(#clip0_1_113)">
<g id="Group">
<path id="Vector" d="M0.433578 13.613L6.14606 0.776853C6.19239 0.67174 6.24789 0.588154 6.30923 0.53107C6.37058 0.473984 6.43654 0.444566 6.50318 0.444566C6.56981 0.444566 6.63577 0.473984 6.69711 0.531069C6.75846 0.588154 6.81396 0.67174 6.86029 0.776853C6.95526 0.991829 7.00837 1.2795 7.00837 1.57893C7.00837 1.87836 6.95526 2.16604 6.86029 2.38101L1.1478 15.2171C1.10147 15.3222 1.04598 15.4058 0.984629 15.4629C0.923279 15.52 0.857324 15.5494 0.790689 15.5494C0.724053 15.5494 0.658098 15.52 0.596749 15.4629C0.535399 15.4058 0.479908 15.3222 0.433578 15.2171C0.338607 15.0022 0.285497 14.7145 0.285497 14.415C0.285497 14.1156 0.338608 13.8279 0.433578 13.613Z" fill="white"/>
<path id="Vector_2" d="M11.8536 15.2175L6.14107 2.38138C6.0461 2.1664 5.99299 1.87873 5.99299 1.5793C5.99299 1.27986 6.0461 0.992193 6.14107 0.777216C6.1874 0.672103 6.24289 0.588516 6.30424 0.53143C6.36559 0.474346 6.43154 0.444929 6.49818 0.444929C6.56482 0.444929 6.63077 0.474347 6.69212 0.531431C6.75347 0.588516 6.80896 0.672102 6.85529 0.777215L12.5678 13.6133C12.6626 13.8287 12.7155 14.1165 12.7152 14.416C12.715 14.7154 12.6616 15.0029 12.5665 15.2175C12.5202 15.3222 12.4648 15.4054 12.4035 15.4622C12.3423 15.519 12.2765 15.5483 12.21 15.5483C12.1435 15.5483 12.0777 15.519 12.0165 15.4622C11.9553 15.4054 11.8999 15.3222 11.8536 15.2175Z" fill="white"/>
</g>
</g>
<defs>
<clipPath id="clip0_1_113">
<rect width="16" height="13" fill="white" transform="translate(13) rotate(90)"/>
</clipPath>
</defs>
</svg>
