<svg width="80" height="80" viewBox="0 0 80 80" fill="none" xmlns="http://www.w3.org/2000/svg">
<rect x="3.5" y="3.5" width="73" height="73" rx="11.5" fill="white" stroke="#59606C" stroke-width="7"/>
<mask id="path-2-inside-1_1_147" fill="white">
<path d="M64.5012 14.6835C63.6596 14.7189 62.8755 14.9524 62.1852 15.2183C61.5386 15.4661 59.068 16.4757 55.1766 18.0657C51.2818 19.657 46.1247 21.7666 40.6234 24.0206C29.6208 28.5286 17.251 33.603 10.9152 36.2002C10.6769 36.2978 9.84561 36.5509 8.96327 37.2071C8.08094 37.8634 7.14285 39.2233 7.14285 40.7386C7.14285 41.9605 7.75404 43.1744 8.52334 43.8992C9.29263 44.6239 10.1066 44.982 10.8039 45.253C11.9068 45.6818 14.0199 46.505 16.1757 47.3451C20.2893 48.9481 23.4908 52.2815 24.9148 56.4604C25.6711 58.6799 26.3904 60.8031 26.682 61.7013C27.1162 63.04 27.5295 63.8784 28.0676 64.5438C28.3366 64.8765 28.6493 65.1681 29.0283 65.3966C29.1798 65.4879 29.3459 65.5583 29.5138 65.6231L29.5239 65.6279C29.5626 65.6427 29.5959 65.6678 29.6351 65.6809C29.7091 65.7055 29.7586 65.7085 29.8576 65.729C30.252 65.8504 30.6502 65.9266 31.0055 65.9266C32.3107 65.9266 33.1797 65.3366 33.3954 65.1732C33.4314 65.1459 33.4665 65.1188 33.5035 65.0931C37.9815 61.4025 44.4864 61.5464 48.7968 65.4313L49.7671 66.3057C50.4187 66.893 50.9857 67.5874 51.7109 68.081C52.3789 68.5358 53.4087 68.9908 54.8581 68.9908C56.4832 68.9908 57.7724 68.2138 58.6 67.3864C59.4271 66.5596 59.9426 65.691 60.1621 64.5992C60.1624 64.5976 60.1626 64.596 60.1626 64.5944C60.1626 64.5928 60.1625 64.5925 60.1628 64.591C60.3703 63.5462 68.8188 22.2222 69.0718 20.9848C69.0722 20.9827 69.0629 21.0121 69.0624 21.0142C69.3173 19.9054 69.3842 18.8727 69.1028 17.8537C68.8215 16.8346 68.0802 15.8589 67.1611 15.3339C66.242 14.809 65.3428 14.6481 64.5012 14.6835ZM63.9044 19.8827C63.954 19.8629 64.0176 19.907 64.0057 19.9591L64.0006 19.988C63.9972 20.0073 63.998 20.0047 63.9941 20.0239C63.8679 20.6408 55.3911 62.0868 55.0755 63.6766C55.1169 63.4613 54.7368 63.853 54.5366 63.7637C54.516 63.7545 54.497 63.7461 54.4804 63.7389C54.4361 63.7197 54.3958 63.6923 54.3625 63.6574L43.3666 53.7471C42.2667 52.7557 40.6068 52.7187 39.4637 53.66C37.2242 55.5041 33.9345 53.3995 34.6702 50.5932L34.8193 50.0243C34.9643 49.4714 35.2467 48.9765 35.6537 48.5752C38.7032 45.5679 52.1315 32.3275 53.0376 31.4642C53.861 30.6847 54.0338 30.413 54.0338 30.1441C54.0338 29.784 53.8368 29.5226 53.3967 29.5226C53.0005 29.5226 52.4678 29.8895 52.1831 30.0622C48.7502 32.1472 34.5498 40.0459 26.6619 44.4204C25.5311 45.0475 24.1867 45.1361 22.982 44.6663C20.1256 43.5525 15.0498 41.5735 12.9616 40.7615C12.9487 40.7564 12.9503 40.7391 12.9631 40.7338C19.3006 38.136 31.6653 33.0616 42.6663 28.5542C48.1668 26.3005 53.3279 24.1894 57.2195 22.5993C60.7559 21.1544 63.2962 20.1253 63.9044 19.8827Z"/>
</mask>
<path d="M64.5012 14.6835C63.6596 14.7189 62.8755 14.9524 62.1852 15.2183C61.5386 15.4661 59.068 16.4757 55.1766 18.0657C51.2818 19.657 46.1247 21.7666 40.6234 24.0206C29.6208 28.5286 17.251 33.603 10.9152 36.2002C10.6769 36.2978 9.84561 36.5509 8.96327 37.2071C8.08094 37.8634 7.14285 39.2233 7.14285 40.7386C7.14285 41.9605 7.75404 43.1744 8.52334 43.8992C9.29263 44.6239 10.1066 44.982 10.8039 45.253C11.9068 45.6818 14.0199 46.505 16.1757 47.3451C20.2893 48.9481 23.4908 52.2815 24.9148 56.4604C25.6711 58.6799 26.3904 60.8031 26.682 61.7013C27.1162 63.04 27.5295 63.8784 28.0676 64.5438C28.3366 64.8765 28.6493 65.1681 29.0283 65.3966C29.1798 65.4879 29.3459 65.5583 29.5138 65.6231L29.5239 65.6279C29.5626 65.6427 29.5959 65.6678 29.6351 65.6809C29.7091 65.7055 29.7586 65.7085 29.8576 65.729C30.252 65.8504 30.6502 65.9266 31.0055 65.9266C32.3107 65.9266 33.1797 65.3366 33.3954 65.1732C33.4314 65.1459 33.4665 65.1188 33.5035 65.0931C37.9815 61.4025 44.4864 61.5464 48.7968 65.4313L49.7671 66.3057C50.4187 66.893 50.9857 67.5874 51.7109 68.081C52.3789 68.5358 53.4087 68.9908 54.8581 68.9908C56.4832 68.9908 57.7724 68.2138 58.6 67.3864C59.4271 66.5596 59.9426 65.691 60.1621 64.5992C60.1624 64.5976 60.1626 64.596 60.1626 64.5944C60.1626 64.5928 60.1625 64.5925 60.1628 64.591C60.3703 63.5462 68.8188 22.2222 69.0718 20.9848C69.0722 20.9827 69.0629 21.0121 69.0624 21.0142C69.3173 19.9054 69.3842 18.8727 69.1028 17.8537C68.8215 16.8346 68.0802 15.8589 67.1611 15.3339C66.242 14.809 65.3428 14.6481 64.5012 14.6835ZM63.9044 19.8827C63.954 19.8629 64.0176 19.907 64.0057 19.9591L64.0006 19.988C63.9972 20.0073 63.998 20.0047 63.9941 20.0239C63.8679 20.6408 55.3911 62.0868 55.0755 63.6766C55.1169 63.4613 54.7368 63.853 54.5366 63.7637C54.516 63.7545 54.497 63.7461 54.4804 63.7389C54.4361 63.7197 54.3958 63.6923 54.3625 63.6574L43.3666 53.7471C42.2667 52.7557 40.6068 52.7187 39.4637 53.66C37.2242 55.5041 33.9345 53.3995 34.6702 50.5932L34.8193 50.0243C34.9643 49.4714 35.2467 48.9765 35.6537 48.5752C38.7032 45.5679 52.1315 32.3275 53.0376 31.4642C53.861 30.6847 54.0338 30.413 54.0338 30.1441C54.0338 29.784 53.8368 29.5226 53.3967 29.5226C53.0005 29.5226 52.4678 29.8895 52.1831 30.0622C48.7502 32.1472 34.5498 40.0459 26.6619 44.4204C25.5311 45.0475 24.1867 45.1361 22.982 44.6663C20.1256 43.5525 15.0498 41.5735 12.9616 40.7615C12.9487 40.7564 12.9503 40.7391 12.9631 40.7338C19.3006 38.136 31.6653 33.0616 42.6663 28.5542C48.1668 26.3005 53.3279 24.1894 57.2195 22.5993C60.7559 21.1544 63.2962 20.1253 63.9044 19.8827Z" fill="#59606C"/>
<path d="M64.5012 14.6835L64.7952 21.6773L64.5012 14.6835ZM62.1852 15.2183L64.6904 21.7547L64.701 21.7506L62.1852 15.2183ZM55.1766 18.0657L52.529 11.5857V11.5857L55.1766 18.0657ZM40.6234 24.0206L43.2773 30.498L40.6234 24.0206ZM10.9152 36.2002L13.5693 42.6775L13.5702 42.6772L10.9152 36.2002ZM8.96327 37.2071L4.78558 31.5905L4.78557 31.5905L8.96327 37.2071ZM10.8039 45.253L13.3403 38.7287L13.3402 38.7287L10.8039 45.253ZM26.682 61.7013L33.3406 59.5418L33.3399 59.5398L26.682 61.7013ZM28.0676 64.5438L22.6246 68.9454L22.6246 68.9454L28.0676 64.5438ZM29.0283 65.3966L25.4141 71.3914L25.4144 71.3916L29.0283 65.3966ZM29.5138 65.6231L32.5243 59.3035L32.2831 59.1886L32.0339 59.0924L29.5138 65.6231ZM29.5239 65.6279L26.5134 71.9474L26.7635 72.0666L27.0223 72.1656L29.5239 65.6279ZM29.6351 65.6809L31.8486 59.04L31.8486 59.04L29.6351 65.6809ZM29.8576 65.729L31.9163 59.0386L31.6022 58.942L31.2805 58.8752L29.8576 65.729ZM31.0055 65.9266L31.0055 58.9266H31.0055V65.9266ZM69.1028 17.8537L75.8504 15.9908L75.8504 15.9907L69.1028 17.8537ZM67.1611 15.3339L70.6331 9.2557L70.6328 9.25551L67.1611 15.3339ZM53.0376 31.4642L48.225 26.381L48.217 26.3886L48.209 26.3962L53.0376 31.4642ZM52.1831 30.0622L48.5539 24.0765L48.5493 24.0792L52.1831 30.0622ZM42.6663 28.5542L40.0124 22.0768L42.6663 28.5542ZM57.2195 22.5993L59.8672 29.0793H59.8672L57.2195 22.5993ZM12.9616 40.7615L15.4987 34.2374L12.9616 40.7615ZM26.6619 44.4204L23.267 38.2987L26.6619 44.4204ZM22.982 44.6663L20.4389 51.1881L22.982 44.6663ZM34.8193 50.0243L41.5905 51.7994L34.8193 50.0243ZM35.6537 48.5752L40.5687 53.5594L35.6537 48.5752ZM34.6702 50.5932L27.899 48.8182L34.6702 50.5932ZM43.3666 53.7471L48.053 48.5473L43.3666 53.7471ZM63.9941 20.0239L57.1361 18.6212L63.9941 20.0239ZM63.9044 19.8827L61.3113 13.3807L63.9044 19.8827ZM69.0718 20.9848L62.2136 19.5826L69.0718 20.9848ZM54.4804 63.7389L57.2638 57.3161L54.4804 63.7389ZM60.1628 64.591L53.297 63.2268L60.1628 64.591ZM49.7671 66.3057L45.0806 71.5054L49.7671 66.3057ZM16.1757 47.3451L13.634 53.8673L16.1757 47.3451ZM33.3954 65.1732L29.168 59.5938L33.3954 65.1732ZM54.5366 63.7637L57.3889 57.3711L54.5366 63.7637ZM60.1621 64.5992L67.0248 65.9788L60.1621 64.5992ZM64.2072 7.68968C62.2864 7.77042 60.6947 8.29112 59.6694 8.686L64.701 21.7506C64.7805 21.72 64.8413 21.6986 64.8876 21.6835C64.9337 21.6685 64.9604 21.6614 64.9705 21.6589C64.9925 21.6534 64.9276 21.6718 64.7952 21.6773L64.2072 7.68968ZM59.6801 8.68189C58.9389 8.96596 56.3502 10.0244 52.529 11.5857L57.8242 24.5456C61.7859 22.927 64.1383 21.9663 64.6904 21.7547L59.6801 8.68189ZM52.529 11.5857C48.6322 13.1779 43.4729 15.2883 37.9695 17.5432L43.2773 30.498C48.7765 28.2448 53.9315 26.1361 57.8242 24.5456L52.529 11.5857ZM37.9695 17.5432C26.9669 22.0512 14.5926 27.1275 8.26016 29.7232L13.5702 42.6772C19.9094 40.0786 32.2747 35.006 43.2773 30.498L37.9695 17.5432ZM8.26102 29.7229C8.35899 29.6827 8.43299 29.6562 8.36281 29.6822C8.33109 29.694 8.23962 29.7277 8.1418 29.765C7.93158 29.8451 7.63758 29.9616 7.29386 30.1172C6.61015 30.4267 5.72232 30.8937 4.78558 31.5905L13.141 42.8238C13.0866 42.8643 13.0555 42.8766 13.0676 42.8711C13.0718 42.8693 13.0855 42.8632 13.1257 42.8478C13.1531 42.8374 13.1726 42.8302 13.2354 42.8069C13.2608 42.7975 13.3049 42.7811 13.3524 42.763C13.3977 42.7458 13.4765 42.7155 13.5693 42.6775L8.26102 29.7229ZM4.78557 31.5905C2.54748 33.2552 0.142853 36.5344 0.142853 40.7386H14.1429C14.1429 41.4197 13.9398 41.8759 13.8194 42.0893C13.7116 42.2805 13.5293 42.535 13.141 42.8238L4.78557 31.5905ZM0.142853 40.7386C0.142853 44.0847 1.6987 47.0869 3.72331 48.9943L13.3234 38.8041C13.6495 39.1114 13.8175 39.3898 13.9154 39.6047C14.0167 39.8273 14.1429 40.2043 14.1429 40.7386H0.142853ZM3.72331 48.9943C5.48919 50.6579 7.31998 51.409 8.26759 51.7774L13.3402 38.7287C13.2806 38.7055 13.2342 38.687 13.1955 38.6711C13.1573 38.6554 13.1295 38.6435 13.1094 38.6345C13.0693 38.6167 13.0635 38.6124 13.079 38.6209C13.0956 38.6301 13.1311 38.651 13.1778 38.6843C13.225 38.7181 13.275 38.7585 13.3234 38.8041L3.72331 48.9943ZM8.26753 51.7773C9.36721 52.2048 11.4776 53.027 13.634 53.8673L18.7175 40.8229C16.5623 39.983 14.4463 39.1587 13.3403 38.7287L8.26753 51.7773ZM18.289 58.7182C19.0519 60.9571 19.7518 63.0242 20.0241 63.8628L33.3399 59.5398C33.029 58.582 32.2904 56.4026 31.5407 54.2025L18.289 58.7182ZM20.0234 63.8608C20.5843 65.5901 21.324 67.3372 22.6246 68.9454L33.5105 60.1423C33.6114 60.267 33.6474 60.3474 33.625 60.3016C33.5897 60.2293 33.4937 60.0139 33.3406 59.5418L20.0234 63.8608ZM22.6246 68.9454C23.3104 69.7935 24.2183 70.6704 25.4141 71.3914L32.6426 59.4019C33.0804 59.6658 33.3628 59.9596 33.5105 60.1423L22.6246 68.9454ZM25.4144 71.3916C26.1027 71.8065 26.7298 72.0519 26.9937 72.1537L32.0339 59.0924C32.0132 59.0845 32.0717 59.1063 32.1666 59.1495C32.2642 59.194 32.4337 59.2759 32.6423 59.4017L25.4144 71.3916ZM26.5032 71.9426L26.5134 71.9474L32.5344 59.3083L32.5243 59.3035L26.5032 71.9426ZM27.0223 72.1656C26.7342 72.0554 26.5135 71.9481 26.3935 71.8874C26.3322 71.8564 26.2851 71.8314 26.2637 71.8199C26.2515 71.8134 26.225 71.7991 26.252 71.8136C26.2644 71.8204 26.3059 71.8428 26.3579 71.8699C26.4117 71.898 26.4899 71.9379 26.5849 71.9833C26.7729 72.0733 27.0601 72.2012 27.4217 72.3217L31.8486 59.04C32.1906 59.154 32.4589 59.2738 32.6284 59.355C32.7142 59.396 32.7832 59.4313 32.8279 59.4546C32.8708 59.477 32.9032 59.4945 32.9067 59.4964C32.9081 59.4971 32.909 59.4976 32.9079 59.4971C32.9076 59.4969 32.9047 59.4953 32.9019 59.4938C32.8961 59.4907 32.8834 59.4838 32.8678 59.4755C32.8373 59.4591 32.7811 59.4293 32.7107 59.3937C32.5723 59.3237 32.3329 59.2077 32.0255 59.0901L27.0223 72.1656ZM27.4217 72.3217C27.6291 72.3908 27.829 72.4477 28.0207 72.4947C28.2053 72.5399 28.3564 72.5696 28.4435 72.586C28.4855 72.5938 28.5204 72.6001 28.5348 72.6026C28.5388 72.6034 28.5426 72.604 28.5451 72.6045C28.5481 72.605 28.5493 72.6052 28.5509 72.6055C28.5536 72.606 28.5526 72.6058 28.5502 72.6054C28.5369 72.603 28.4928 72.595 28.4348 72.5829L31.2805 58.8752C31.173 58.8529 31.0855 58.8368 31.0329 58.8273C31.0206 58.825 31.01 58.8232 31.0033 58.822C30.993 58.8201 30.9955 58.8206 30.9917 58.8199C30.988 58.8192 31.0056 58.8224 31.0305 58.827C31.0836 58.837 31.2023 58.8601 31.3537 58.8972C31.5122 58.936 31.6781 58.9832 31.8486 59.04L27.4217 72.3217ZM27.799 72.4195C28.6058 72.6677 29.7284 72.9266 31.0055 72.9266V58.9266C31.3153 58.9266 31.5422 58.9585 31.6666 58.9805C31.7965 59.0035 31.8801 59.0275 31.9163 59.0386L27.799 72.4195ZM31.0055 72.9266C34.4289 72.9266 36.7665 71.4014 37.6229 70.7525L29.168 59.5938C29.4205 59.4025 29.6696 59.2514 29.9413 59.1395C30.2255 59.0223 30.5893 58.9266 31.0055 58.9266L31.0055 72.9266ZM44.1104 70.631L45.0806 71.5054L54.4535 61.106L53.4833 60.2315L44.1104 70.631ZM47.7717 73.8675C49.4607 75.0173 51.8427 75.9908 54.8581 75.9908V61.9908C54.8799 61.9908 54.9935 61.9964 55.1654 62.0526C55.3312 62.1067 55.4956 62.1895 55.65 62.2946L47.7717 73.8675ZM54.8581 75.9908C58.8089 75.9908 61.7829 74.1024 63.549 72.337L53.6511 62.4358C53.7318 62.3552 53.8488 62.2591 54.0334 62.1718C54.2396 62.0742 54.5286 61.9908 54.8581 61.9908V75.9908ZM63.549 72.337C65.1739 70.7125 66.4876 68.6509 67.0248 65.9788L53.2994 63.2196C53.333 63.0523 53.4065 62.8385 53.523 62.6336C53.6306 62.4442 53.7101 62.3768 53.6511 62.4358L63.549 72.337ZM67.0286 65.9551C67.2311 64.9357 75.672 23.6484 75.9299 22.3869L62.2136 19.5826C61.9655 20.7961 53.5096 62.1567 53.297 63.2268L67.0286 65.9551ZM75.8844 22.5829C76.2883 20.8263 76.5506 18.5272 75.8504 15.9908L62.3553 19.7165C62.3252 19.6077 62.3064 19.5047 62.296 19.4134C62.2857 19.3234 62.2851 19.257 62.286 19.2213C62.2876 19.1577 62.2938 19.2135 62.2404 19.4455L75.8844 22.5829ZM75.8504 15.9907C75.0929 13.2471 73.2095 10.7274 70.6331 9.2557L63.689 21.4121C63.2539 21.1636 62.9844 20.8871 62.8184 20.6708C62.6518 20.4538 62.4744 20.148 62.3553 19.7166L75.8504 15.9907ZM70.6328 9.25551C68.4517 8.00976 66.2225 7.60496 64.2072 7.68968L64.7952 21.6773C64.6611 21.683 64.4694 21.6744 64.2463 21.6235C64.0186 21.5716 63.8276 21.4913 63.6893 21.4123L70.6328 9.25551ZM57.1104 18.7529L57.1053 18.7818L70.8959 21.1942L70.901 21.1653L57.1104 18.7529ZM57.1361 18.6212C57.0149 19.2137 48.5303 60.6974 48.2095 62.3136L61.9415 65.0396C62.2519 63.4762 70.721 22.0679 70.8522 21.4265L57.1361 18.6212ZM57.3889 57.3711C57.3428 57.3506 57.3007 57.3321 57.2638 57.3161L51.697 70.1618C51.6933 70.1602 51.6892 70.1584 51.6844 70.1562L57.3889 57.3711ZM59.0489 58.4576L48.053 48.5473L38.6802 58.9469L49.6761 68.8571L59.0489 58.4576ZM41.4414 52.3683L41.5905 51.7994L28.0481 48.2493L27.899 48.8182L41.4414 52.3683ZM40.5687 53.5594C43.6682 50.5029 57.0182 37.3402 57.8663 36.5322L48.209 26.3962C47.2449 27.3148 33.7382 40.6329 30.7386 43.591L40.5687 53.5594ZM57.8503 36.5474C58.2778 36.1426 58.9349 35.5071 59.4865 34.7561C60.1956 33.7905 61.0338 32.2305 61.0338 30.1441H47.0338C47.0338 29.3816 47.1708 28.5935 47.4618 27.838C47.7231 27.1596 48.038 26.6932 48.2025 26.4692C48.4617 26.1162 48.6208 26.0064 48.225 26.381L57.8503 36.5474ZM61.0338 30.1441C61.0338 28.7462 60.6428 26.6631 58.9684 24.8909C57.2245 23.0451 55.0253 22.5226 53.3967 22.5226V36.5226C52.2082 36.5226 50.3276 36.1308 48.7922 34.5057C47.3263 32.9542 47.0338 31.1819 47.0338 30.1441H61.0338ZM53.3967 22.5226C52.2752 22.5226 51.3752 22.7704 50.8447 22.9491C50.282 23.1387 49.8247 23.3583 49.523 23.5149C49.0313 23.7701 48.3864 24.178 48.5539 24.0765L55.8122 36.0479C55.8929 35.9991 55.9725 35.9492 56.0043 35.9294C56.0496 35.9012 56.0679 35.8898 56.083 35.8806C56.1156 35.8607 56.0674 35.8915 55.9732 35.9404C55.8898 35.9837 55.6577 36.1007 55.3152 36.2162C55.005 36.3207 54.3201 36.5226 53.3967 36.5226V22.5226ZM48.5493 24.0792C45.2699 26.071 31.2483 33.8724 23.267 38.2987L30.0569 50.542C37.8513 46.2194 52.2304 38.2233 55.8168 36.0452L48.5493 24.0792ZM25.5251 38.1446C22.6702 37.0314 17.5906 35.0509 15.4987 34.2374L10.4246 47.2855C12.5089 48.0961 17.581 50.0736 20.4389 51.1881L25.5251 38.1446ZM15.6181 47.2108C21.9619 44.6104 34.3178 39.5395 45.3202 35.0316L40.0124 22.0768C29.0127 26.5836 16.6394 31.6616 10.3081 34.2569L15.6181 47.2108ZM45.3202 35.0316C50.8186 32.7788 55.9776 30.6685 59.8672 29.0793L54.5719 16.1193C50.6782 17.7102 45.515 19.8222 40.0124 22.0768L45.3202 35.0316ZM59.8672 29.0793C63.4068 27.633 65.9208 26.6147 66.4974 26.3847L61.3113 13.3807C60.6717 13.6358 58.1049 14.6758 54.5719 16.1193L59.8672 29.0793ZM15.4987 34.2374C18.5521 35.4248 20.1309 38.4026 19.9362 41.2289C19.7558 43.8468 18.114 46.1809 15.6333 47.2046L10.293 34.2631C7.79947 35.2921 6.15043 37.6374 5.96929 40.2666C5.7738 43.1041 7.35823 46.0931 10.4246 47.2855L15.4987 34.2374ZM23.267 38.2987C23.9644 37.912 24.797 37.8607 25.5251 38.1446L20.4389 51.1881C23.5765 52.4115 27.0978 52.1831 30.0569 50.542L23.267 38.2987ZM41.5905 51.7994C41.4238 52.4356 41.078 53.0572 40.5687 53.5594L30.7386 43.591C29.4153 44.8959 28.5048 46.5072 28.0481 48.2493L41.5905 51.7994ZM35.014 48.2562C38.0169 45.7836 42.4278 48.6055 41.4414 52.3683L27.899 48.8182C25.4413 58.1934 36.4315 65.2246 43.9134 59.0637L35.014 48.2562ZM48.053 48.5473C44.3782 45.2354 38.8329 45.1116 35.014 48.2562L43.9134 59.0637C42.3807 60.3258 40.1551 60.2761 38.6802 58.9469L48.053 48.5473ZM57.1053 18.7818C57.1004 18.8096 57.0964 18.8334 57.0931 18.8534C57.0923 18.8586 57.0904 18.8696 57.0915 18.8632C57.0918 18.8614 57.094 18.8482 57.0969 18.8311C57.1001 18.8122 57.104 18.7896 57.1086 18.7642C57.1131 18.7391 57.1174 18.7161 57.1214 18.6957C57.1286 18.658 57.1343 18.6298 57.1361 18.6212L70.8522 21.4265C70.8559 21.4083 70.863 21.3732 70.8713 21.33C70.8812 21.2785 70.8901 21.229 70.8983 21.1809C70.9015 21.1617 70.904 21.1464 70.9047 21.1423C70.9062 21.1337 70.9047 21.1423 70.9043 21.1446C70.9019 21.1591 70.8991 21.176 70.8959 21.1942L57.1053 18.7818ZM70.8285 21.524C71.6226 18.062 69.737 15.4313 68.1057 14.2404C66.5151 13.0791 63.973 12.3192 61.3113 13.3807L66.4974 26.3847C63.8854 27.4265 61.3999 26.6787 59.8505 25.5475C58.2605 24.3867 56.4007 21.804 57.1828 18.3941L70.8285 21.524ZM75.9299 22.3869C75.9422 22.3269 75.9905 22.0915 76.0257 21.7865C76.0403 21.6602 76.0822 21.2827 76.0693 20.7976C76.063 20.5635 76.0398 20.0787 75.9083 19.4807C75.8158 19.0602 75.4717 17.5823 74.1887 16.208C73.5499 15.6045 71.9494 14.6035 70.998 14.2549C70.0166 14.0487 68.1684 14.0432 67.3342 14.2037C65.5911 14.6504 64.5329 15.6393 64.2318 15.9275C63.5042 16.6239 63.1054 17.3222 63.0525 17.4114C62.8195 17.8038 62.6775 18.1359 62.6581 18.1802C62.5737 18.3731 62.5165 18.5291 62.5076 18.5532C62.4871 18.6086 62.4715 18.6528 62.4636 18.6754C62.437 18.7516 62.4168 18.8138 62.4157 18.8172C62.4049 18.8505 62.3961 18.8782 62.393 18.888C62.3886 18.9019 62.3836 18.9177 62.3785 18.9341C62.3763 18.9414 62.3717 18.9562 62.3661 18.9745C62.3636 18.9828 62.3581 19.001 62.3512 19.0241C62.3478 19.0355 62.3418 19.0559 62.3345 19.0815C62.33 19.0972 62.3123 19.1586 62.2916 19.2376L75.8332 22.7908C75.8125 22.8697 75.7949 22.9309 75.7904 22.9464C75.7832 22.9717 75.7772 22.9918 75.7739 23.0029C75.7673 23.0253 75.762 23.0428 75.7598 23.0501C75.7548 23.0663 75.751 23.0785 75.7497 23.0828C75.7465 23.0931 75.7439 23.1013 75.7419 23.1078C75.7411 23.1103 75.7346 23.1309 75.7254 23.1592C75.7251 23.1601 75.7056 23.2203 75.6794 23.2953C75.6716 23.3176 75.6561 23.3615 75.6357 23.4167C75.6268 23.4406 75.5697 23.5964 75.4853 23.7893C75.466 23.8335 75.3239 24.1656 75.091 24.5579C75.0381 24.6471 74.6394 25.3454 73.9118 26.0418C73.6106 26.33 72.5524 27.3189 70.8094 27.7656C69.9751 27.9261 68.1269 27.9206 67.1456 27.7144C66.1942 27.3658 64.5936 26.3648 63.9548 25.7613C62.6719 24.387 62.3277 22.9091 62.2352 22.4886C62.1037 21.8907 62.0805 21.4058 62.0743 21.1717C62.0613 20.6866 62.1033 20.3091 62.1178 20.1829C62.153 19.8778 62.2014 19.6425 62.2136 19.5826L75.9299 22.3869ZM57.2638 57.3161C58.0324 57.6492 58.7801 58.1472 59.427 58.8251L49.298 68.4897C50.0115 69.2374 50.8397 69.7903 51.697 70.1618L57.2638 57.3161ZM67.1626 64.5944C67.1626 64.5257 67.1613 64.461 67.1617 64.4825C67.1617 64.4869 67.1624 64.5257 67.1625 64.5748C67.1627 64.6278 67.1623 64.7069 67.1594 64.8029C67.153 65.0148 67.1367 65.2365 67.1078 65.4663C67.0812 65.6774 67.0499 65.8479 67.0286 65.9551L53.297 63.2268C53.2755 63.3348 53.2441 63.5059 53.2174 63.7176C53.1884 63.9479 53.1721 64.1701 53.1657 64.3824C53.1628 64.4787 53.1624 64.558 53.1626 64.6112C53.1627 64.6606 53.1633 64.6997 53.1634 64.7044C53.1638 64.7264 53.1626 64.6623 53.1626 64.5944H67.1626ZM45.0806 71.5054C45.2608 71.6679 45.2594 71.6845 45.8027 72.219C46.198 72.6078 46.879 73.2598 47.7717 73.8675L55.65 62.2946C55.8176 62.4086 55.8524 62.4666 55.6201 62.238C55.5675 62.1863 55.5099 62.1288 55.435 62.0536C55.367 61.9855 55.2729 61.8908 55.1819 61.8002C54.9966 61.6158 54.7439 61.3677 54.4535 61.106L45.0806 71.5054ZM13.634 53.8673C15.8312 54.7236 17.5334 56.501 18.289 58.7182L31.5407 54.2025C29.4483 48.0621 24.7473 43.1727 18.7175 40.8229L13.634 53.8673ZM37.9555 70.4949C39.7577 69.0096 42.3756 69.0675 44.1104 70.631L53.4833 60.2315C46.5972 54.0252 36.2052 53.7954 29.0515 59.6913L37.9555 70.4949ZM37.6229 70.7525C37.6318 70.7457 37.6397 70.7397 37.6449 70.7358C37.6515 70.7308 37.653 70.7296 37.6559 70.7274C37.6607 70.7237 37.6549 70.7281 37.645 70.7356C37.6255 70.7502 37.5687 70.7925 37.4904 70.8468L29.5167 59.3394C29.4013 59.4193 29.3084 59.4881 29.2531 59.5295C29.2253 59.5503 29.2017 59.5683 29.1886 59.5782C29.1826 59.5827 29.1752 59.5883 29.1729 59.5901C29.1711 59.5915 29.1699 59.5924 29.1691 59.593C29.1682 59.5937 29.1679 59.5939 29.168 59.5938L37.6229 70.7525ZM61.9495 64.9987C62.0176 64.6444 62.1145 64.0061 62.065 63.2089C62.0163 62.4251 61.7992 61.0711 60.8679 59.6963C59.8362 58.1733 58.355 57.254 56.8925 56.8569C55.6051 56.5074 54.5299 56.6079 53.9766 56.6927C52.9399 56.8516 52.1742 57.2172 52.0653 57.2669C51.9349 57.3266 51.8304 57.3789 51.7745 57.4072C51.7196 57.435 51.6696 57.4612 51.6626 57.4648C51.4976 57.5507 51.9468 57.298 52.5216 57.1087C52.9236 56.9763 54.9901 56.3008 57.3889 57.3711L51.6844 70.1562C54.1833 71.2712 56.3723 70.5802 56.9006 70.4062C57.3053 70.273 57.6215 70.1304 57.7974 70.0473C57.9709 69.9653 58.1199 69.8867 58.1307 69.8811C58.2057 69.842 58.0601 69.92 57.8867 69.9993C57.8253 70.0273 57.101 70.3774 56.0973 70.5312C55.5604 70.6135 54.4996 70.7141 53.2241 70.3678C51.7736 69.974 50.3019 69.0611 49.277 67.5481C48.3525 66.1834 48.1395 64.8432 48.0919 64.0773C48.0435 63.298 48.1385 62.6819 48.2015 62.3545L61.9495 64.9987ZM67.0248 65.9788C67.1161 65.5245 67.1626 65.0608 67.1626 64.5944H53.1626C53.1626 64.1312 53.2087 63.6708 53.2994 63.2196L67.0248 65.9788Z" fill="#59606C" mask="url(#path-2-inside-1_1_147)"/>
</svg>
