<svg width="80" height="80" viewBox="0 0 80 80" fill="none" xmlns="http://www.w3.org/2000/svg">
<rect width="80" height="80" rx="30" fill="white"/>
<path d="M14.8438 0C6.69034 0 0 6.69034 0 14.8437V65.1562C0 73.3097 6.69034 80 14.8438 80H65.1562C73.3097 80 80 73.3097 80 65.1562V14.8437C80 6.69034 73.3097 0 65.1562 0H14.8438ZM14.8438 7.27273H65.1562C69.375 7.27273 72.7273 10.625 72.7273 14.8437V65.1562C72.7273 69.375 69.375 72.7273 65.1562 72.7273H14.8438C10.625 72.7273 7.27273 69.375 7.27273 65.1562V14.8437C7.27273 10.625 10.625 7.27273 14.8438 7.27273ZM38.9773 26.2926C36.3068 26.2642 34.0341 26.2926 32.7557 26.9176C31.9034 27.3295 31.25 28.267 31.6477 28.3097C32.1449 28.3807 33.267 28.6222 33.8636 29.4318C34.6307 30.4688 34.6023 32.8125 34.6023 32.8125C34.6023 32.8125 35.0284 39.2614 33.5653 40.071C32.5568 40.625 31.179 39.5028 28.196 34.375C26.6761 31.733 25.5256 28.821 25.5256 28.821C25.5256 28.821 25.3125 28.2812 24.9148 27.9972C24.4318 27.642 23.7642 27.5284 23.7642 27.5284L16.6477 27.571C16.6477 27.571 15.5824 27.6136 15.1989 28.0682C14.8438 28.4943 15.1705 29.3324 15.1705 29.3324C15.1705 29.3324 20.7386 42.358 27.0455 48.9205C32.8267 54.9432 39.3892 54.5455 39.3892 54.5455H42.3722C42.3722 54.5455 43.267 54.446 43.7216 53.9631C44.1477 53.5085 44.1335 52.6562 44.1335 52.6562C44.1335 52.6562 44.0767 48.6648 45.9233 48.0682C47.7557 47.5 50.0852 51.9318 52.571 53.6364C54.4602 54.929 55.8949 54.6449 55.8949 54.6449L62.5426 54.5455C62.5426 54.5455 66.0085 54.3324 64.3608 51.5909C64.233 51.3778 63.4091 49.5739 59.4318 45.8807C55.2557 42.017 55.8097 42.642 60.8381 35.9517C63.892 31.875 65.1136 29.3892 64.7301 28.3097C64.3608 27.3011 62.1165 27.571 62.1165 27.571L54.6307 27.6136C54.6307 27.6136 54.0767 27.5426 53.6648 27.7841C53.267 28.0256 53.0114 28.5937 53.0114 28.5937C53.0114 28.5937 51.8182 31.7472 50.2415 34.4318C46.9176 40.0852 45.5682 40.3977 45.0284 40.0426C43.7642 39.2187 44.0767 36.7472 44.0767 35C44.0767 29.5028 44.9148 27.2301 42.4574 26.6335C41.6477 26.4347 41.0511 26.3068 38.9773 26.2926Z" fill="#59606C"/>
</svg>
